<?xml version="1.0" encoding="UTF-8"?>
<svg version="1.1" xmlns="http://www.w3.org/2000/svg" width="80" height="80">
<path d="M0 0 C5.25787796 3.15694998 8.70508199 7.25498142 10.9375 12.9375 C11.96656501 18.70026405 11.77159567 23.09896222 10.04296875 28.66796875 C9.76735107 29.56281982 9.4917334 30.4576709 9.20776367 31.37963867 C8.99482666 32.05873291 8.78188965 32.73782715 8.5625 33.4375 C9.14330322 33.99211914 9.72410645 34.54673828 10.32250977 35.11816406 C12.93624474 37.62823147 15.53064819 40.15741027 18.125 42.6875 C19.03958984 43.56019531 19.95417969 44.43289062 20.89648438 45.33203125 C21.75693359 46.17636719 22.61738281 47.02070312 23.50390625 47.890625 C24.70575562 49.05319824 24.70575562 49.05319824 25.93188477 50.23925781 C27.5625 52.4375 27.5625 52.4375 27.44116211 54.59667969 C26.5625 56.4375 26.5625 56.4375 24.5625 58.4375 C20.71081853 58.18244526 18.84334544 56.0672207 16.234375 53.40234375 C15.43515625 52.59345703 14.6359375 51.78457031 13.8125 50.95117188 C12.9875 50.10103516 12.1625 49.25089844 11.3125 48.375 C10.47203125 47.52099609 9.6315625 46.66699219 8.765625 45.78710938 C6.69102403 43.67714588 4.62374168 41.56050292 2.5625 39.4375 C1.88123047 39.64898682 1.19996094 39.86047363 0.49804688 40.07836914 C-0.39849609 40.35285889 -1.29503906 40.62734863 -2.21875 40.91015625 C-3.10626953 41.18351807 -3.99378906 41.45687988 -4.90820312 41.73852539 C-12.04418279 43.71056301 -18.13152896 42.00084113 -24.4375 38.4375 C-28.82740502 34.55238899 -32.14694635 30.18086706 -32.7734375 24.265625 C-32.92055302 10.78984308 -32.92055302 10.78984308 -28.4375 5.4375 C-20.60716059 -1.73112059 -10.1595069 -4.60721824 0 0 Z M-22.4375 10.4375 C-25.45057266 14.76879194 -25.99674465 18.21788327 -25.4375 23.4375 C-23.44905883 28.77489473 -20.53082352 31.89083824 -15.4375 34.4375 C-10.69768474 35.01575746 -7.31752177 34.91010429 -3.0625 32.625 C2.0010734 28.52110045 2.0010734 28.52110045 3.80078125 22.38671875 C3.98222808 16.85736524 3.29526814 13.79239616 -0.4375 9.4375 C-3.68050092 6.5875901 -6.30380012 5.57087646 -10.625 5.0625 C-15.5782585 5.54970575 -18.68052897 7.22207434 -22.4375 10.4375 Z " fill="#9D988E" transform="translate(42.4375,11.5625)"/>
</svg>
