<?xml version="1.0" encoding="UTF-8"?>
<svg version="1.1" xmlns="http://www.w3.org/2000/svg" width="96" height="115">
<path d="M0 0 C0.66 0 1.32 0 2 0 C3.7143618 1.95927063 5.38405168 3.95880212 7 6 C5.63733356 10.03805866 3.8590849 12.54368118 0.9375 15.625 C-3.32426623 20.21831368 -7.31315732 24.97444648 -11.25 29.84765625 C-13 32 -13 32 -14 33 C9.265 33.495 9.265 33.495 33 34 C33 37.3 33 40.6 33 44 C17.82 44.33 2.64 44.66 -13 45 C-9.37 49.29 -5.74 53.58 -2 58 C1.00825435 61.66064686 4.01425179 65.32126332 7 69 C5.58208437 71.93446886 4.01667393 74.43332409 2 77 C-1.73892951 75.49775154 -3.54093605 73.39834702 -6 70.25 C-9.59808892 65.7271963 -13.28175723 61.30855569 -17.0625 56.9375 C-18.57142664 55.17744537 -20.07811217 53.41550032 -21.58398438 51.65283203 C-22.90934064 50.10582136 -24.24342155 48.56629727 -25.578125 47.02734375 C-26.31546875 46.15207031 -27.0528125 45.27679688 -27.8125 44.375 C-28.45832031 43.61960938 -29.10414062 42.86421875 -29.76953125 42.0859375 C-31 40 -31 40 -30.7409668 38.07495117 C-29.92567742 35.7918723 -28.98832208 34.51338512 -27.375 32.71484375 C-26.56905396 31.80351685 -26.56905396 31.80351685 -25.74682617 30.8737793 C-25.17037354 30.23480713 -24.5939209 29.59583496 -24 28.9375 C-22.80743774 27.58956354 -21.61603695 26.24059863 -20.42578125 24.890625 C-19.84006348 24.22869141 -19.2543457 23.56675781 -18.65087891 22.88476562 C-14.17228679 17.77167318 -9.91859277 12.46296857 -5.7421875 7.1015625 C-5.02289063 6.18117188 -4.30359375 5.26078125 -3.5625 4.3125 C-2.92441406 3.48363281 -2.28632812 2.65476562 -1.62890625 1.80078125 C-1.09136719 1.20652344 -0.55382812 0.61226562 0 0 Z " fill="#9D988E" transform="translate(47,20)"/>
</svg>
