<?xml version="1.0" encoding="UTF-8"?>
<svg version="1.1" xmlns="http://www.w3.org/2000/svg" width="256" height="128">
<path d="M0 0 C7.92 0 15.84 0 24 0 C24 2.64 24 5.28 24 8 C24.90363281 7.96519531 25.80726563 7.93039063 26.73828125 7.89453125 C27.91777344 7.86746094 29.09726563 7.84039062 30.3125 7.8125 C31.48425781 7.77769531 32.65601563 7.74289063 33.86328125 7.70703125 C37.41360628 8.03863072 37.81587831 8.38009687 40 11 C50.817385 28.68174422 49.47274686 51.07979044 48 71 C47 72 47 72 44.75 72.1328125 C43.8425 72.13023438 42.935 72.12765625 42 72.125 C40.63875 72.12886719 40.63875 72.12886719 39.25 72.1328125 C37 72 37 72 36 71 C36 68.69 36 66.38 36 64 C20.16 64 4.32 64 -12 64 C-12 66.31 -12 68.62 -12 71 C-13 72 -13 72 -15.25 72.1328125 C-16.1575 72.13023438 -17.065 72.12765625 -18 72.125 C-19.36125 72.12886719 -19.36125 72.12886719 -20.75 72.1328125 C-23 72 -23 72 -24 71 C-24.43512801 65.11450713 -24.49621444 59.21239542 -24.5625 53.3125 C-24.57222839 52.44974457 -24.58195679 51.58698914 -24.59197998 50.6980896 C-24.68022174 35.26496576 -22.76189971 21.14284957 -14 8 C-10.7421875 7.70703125 -10.7421875 7.70703125 -6.875 7.8125 C-4.95300781 7.85310547 -4.95300781 7.85310547 -2.9921875 7.89453125 C-2.00476563 7.92933594 -1.01734375 7.96414062 0 8 C0 5.36 0 2.72 0 0 Z M-8 16 C-8.6708712 17.6232687 -9.33657029 19.24867578 -10 20.875 C-10.37125 21.77992187 -10.7425 22.68484375 -11.125 23.6171875 C-12.11490226 25.88983858 -12.11490226 25.88983858 -12 28 C3.84 28 19.68 28 36 28 C34.93601179 21.45681127 34.93601179 21.45681127 32 16 C29.04294679 15.91131701 26.10934944 15.88479704 23.15234375 15.90234375 C22.2659169 15.9037587 21.37949005 15.90517365 20.46620178 15.90663147 C17.62326746 15.91224785 14.78041069 15.92480309 11.9375 15.9375 C10.01497509 15.94251289 8.09244896 15.94707616 6.16992188 15.95117188 C1.44658451 15.96222259 -3.27669458 15.97949817 -8 16 Z M-16 36 C-16 42.6 -16 49.2 -16 56 C2.48 56 20.96 56 40 56 C40 49.4 40 42.8 40 36 C21.52 36 3.04 36 -16 36 Z " fill="#494358" transform="translate(116,28)"/>
<path d="M0 0 C4.34586828 -0.39507893 6.32003497 -0.45331002 10 2 C10.39507893 6.34586828 10.45331002 8.32003497 8 12 C3.65413172 12.39507893 1.67996503 12.45331002 -2 10 C-2.39507893 5.65413172 -2.45331002 3.67996503 0 0 Z " fill="#494358" transform="translate(142,68)"/>
<path d="M0 0 C4.34586828 -0.39507893 6.32003497 -0.45331002 10 2 C10.39507893 6.34586828 10.45331002 8.32003497 8 12 C3.65413172 12.39507893 1.67996503 12.45331002 -2 10 C-2.39507893 5.65413172 -2.45331002 3.67996503 0 0 Z " fill="#494358" transform="translate(106,68)"/>
</svg>
