<?xml version="1.0" encoding="UTF-8"?>
<svg version="1.1" xmlns="http://www.w3.org/2000/svg" width="80" height="80">
<path d="M0 0 C6.41069287 5.27101414 12.18590512 11.09128152 18 17 C21.15204981 15.60652624 23.26171773 13.97514921 25.671875 11.5234375 C26.33574219 10.853125 26.99960937 10.1828125 27.68359375 9.4921875 C28.36550781 8.79351562 29.04742187 8.09484375 29.75 7.375 C30.44738281 6.66859375 31.14476562 5.9621875 31.86328125 5.234375 C33.58012488 3.49401297 35.29211832 1.74915019 37 0 C38.98 1.65 40.96 3.3 43 5 C37.72898586 11.41069287 31.90871848 17.18590512 26 23 C27.39347376 26.15204981 29.02485079 28.26171773 31.4765625 30.671875 C32.146875 31.33574219 32.8171875 31.99960937 33.5078125 32.68359375 C34.20648438 33.36550781 34.90515625 34.04742187 35.625 34.75 C36.33140625 35.44738281 37.0378125 36.14476562 37.765625 36.86328125 C39.50598703 38.58012488 41.25084981 40.29211832 43 42 C40.525 44.97 40.525 44.97 38 48 C31.58930713 42.72898586 25.81409488 36.90871848 20 31 C16.84795019 32.39347376 14.73828227 34.02485079 12.328125 36.4765625 C11.66425781 37.146875 11.00039063 37.8171875 10.31640625 38.5078125 C9.63449219 39.20648438 8.95257813 39.90515625 8.25 40.625 C7.55261719 41.33140625 6.85523438 42.0378125 6.13671875 42.765625 C4.41987512 44.50598703 2.70788168 46.25084981 1 48 C-0.98 46.35 -2.96 44.7 -5 43 C0.27101414 36.58930713 6.09128152 30.81409488 12 25 C10.60652624 21.84795019 8.97514921 19.73828227 6.5234375 17.328125 C5.853125 16.66425781 5.1828125 16.00039063 4.4921875 15.31640625 C3.44417969 14.29353516 3.44417969 14.29353516 2.375 13.25 C1.66859375 12.55261719 0.9621875 11.85523438 0.234375 11.13671875 C-1.50598703 9.41987512 -3.25084981 7.70788168 -5 6 C-3.35 4.02 -1.7 2.04 0 0 Z " fill="#9F998F" transform="translate(21,16)"/>
</svg>
