<?xml version="1.0" encoding="UTF-8"?>
<svg version="1.1" xmlns="http://www.w3.org/2000/svg" width="80" height="80">
<path d="M0 0 C9.10025851 6.58768714 14.72455487 13.96654661 17 25 C18.17247803 33.84302705 16.19217605 42.59031468 10.94140625 49.84375 C3.73526311 58.10711819 -3.48846266 62.87147348 -14.4453125 64.32421875 C-23.98565072 64.76902552 -32.31898564 61.88726693 -39.5 55.625 C-46.93002941 48.31385106 -50.94707741 40.64371903 -51.4375 30.125 C-50.9710795 18.67975862 -46.27700583 10.66604934 -38 3 C-27.08650839 -6.05587602 -12.3286514 -6.08321615 0 0 Z M-37 12 C-42.67749116 19.80655034 -43.88500656 26.34979144 -43 36 C-40.62861071 44.20771008 -36.18768143 49.54822787 -29 53.984375 C-22.89414929 57.08500232 -14.87520355 57.11963216 -8.390625 55.24609375 C-0.67427556 51.94463552 4.19833426 47.48635716 8 40 C10.18138196 33.34609906 9.9944569 25.47699534 7.25 19.0625 C3.63658807 12.0991541 -1.27149772 6.87800384 -8.89453125 4.37890625 C-19.406094 2.48721499 -29.28739 4.28739 -37 12 Z " fill="#9F998E" transform="translate(57,10)"/>
<path d="M0 0 C4.73521349 2.66300647 8.08397695 5.86527122 9.72265625 11.1171875 C10.63078638 16.41028882 10.3156781 20.77028275 7.66015625 25.4921875 C4.34465767 30.0672051 0.93699715 32.56570744 -4.66796875 33.52734375 C-10.1688989 33.85638712 -14.10556942 32.90032558 -18.58203125 29.65625 C-22.87693152 25.75719307 -24.49380125 21.96480831 -24.83984375 16.1796875 C-24.59437841 10.80399647 -22.88012485 7.08573318 -19.27734375 3.1171875 C-13.8901693 -1.72306569 -6.70944116 -2.60091544 0 0 Z " fill="#9F998E" transform="translate(47.27734375,23.8828125)"/>
</svg>
