<?xml version="1.0" encoding="UTF-8"?>
<svg version="1.1" xmlns="http://www.w3.org/2000/svg" width="80" height="80">
<path d="M0 0 C5.98628824 5.16816218 9.42637548 10.1338776 10.20703125 18.1171875 C10.69437068 28.54986127 6.11683778 35.87756542 0.0625 44 C-4.06659115 49.57405867 -7.65072464 54.75486792 -10.10473633 61.27905273 C-11 63 -11 63 -13.75 64.0625 C-14.4925 64.041875 -15.235 64.02125 -16 64 C-17.99021564 60.74486597 -19.81305525 57.45172281 -21.5625 54.0625 C-24.09179638 49.35343311 -27.01019979 45.15175793 -30.1875 40.875 C-35.90710672 33.0742935 -39.42524947 25.84416497 -38 16 C-36.09267119 7.83663269 -31.88620704 2.68449459 -25 -2 C-16.35986705 -5.63795072 -7.97314629 -4.71828594 0 0 Z M-27.3125 10.625 C-30.80324071 15.53789433 -30.67556743 20.10056811 -30 26 C-27.66667741 32.53112258 -22.87185772 38.1108143 -18.76953125 43.6171875 C-17.46355765 45.3757833 -16.21506268 47.17740599 -15 49 C-11.48418443 47.82806148 -11.1551098 47.10746482 -9.25 44.0625 C-6.43904721 39.65937847 -3.46738488 35.40497235 -0.41796875 31.1640625 C2.82490757 26.21487936 2.58955528 20.71541089 2 15 C-0.45567552 9.99769802 -3.9970307 6.50148465 -9 4 C-17.08860923 3.11258064 -21.79101262 4.35736567 -27.3125 10.625 Z " fill="#9F998E" transform="translate(54,10)"/>
<path d="M0 0 C3.25998273 1.15457722 4.37368391 2.59615571 5.875 5.6640625 C6.28968735 10.01827964 5.55792725 12.81557713 2.8125 16.2265625 C-0.61348883 17.90311022 -2.55702248 18.04154111 -6.25 17.328125 C-9.50998273 16.17354778 -10.62368391 14.73196929 -12.125 11.6640625 C-12.53968735 7.30984536 -11.80792725 4.51254787 -9.0625 1.1015625 C-5.63651117 -0.57498522 -3.69297752 -0.71341611 0 0 Z " fill="#9F998E" transform="translate(43.125,21.3359375)"/>
</svg>
