<?xml version="1.0" encoding="UTF-8"?>
<svg version="1.1" xmlns="http://www.w3.org/2000/svg" width="256" height="128">
<path d="M0 0 C7.2278816 4.3075254 11.6072359 10.13268617 14.4375 18 C16.266803 31.26907467 13.26958009 41.04042789 5.28515625 51.9375 C3.79689335 53.86256414 2.29938459 55.78051386 0.79296875 57.69140625 C-3.8422176 63.89704765 -7.1034593 71.09827341 -10.5625 78 C-12.5425 78 -14.5225 78 -16.5625 78 C-17.07296875 76.97003906 -17.5834375 75.94007812 -18.109375 74.87890625 C-22.58074311 66.05535076 -27.4443529 57.8860054 -33.39941406 49.97485352 C-38.82365725 42.65719121 -42.32196109 35.80896674 -42.125 26.5625 C-42.11404297 25.82531738 -42.10308594 25.08813477 -42.09179688 24.32861328 C-41.75451837 15.79734093 -38.91855464 9.91775173 -32.6875 4.0625 C-23.90268227 -3.41745987 -10.46364874 -4.75036814 0 0 Z M-20.5625 19 C-23.20510627 22.63358362 -23.68190078 24.21726156 -23 28.6875 C-21.51688124 32.1051215 -20.82272727 33.32331169 -17.5625 35 C-14.22604485 36.22922032 -12.84080865 36.09462494 -9.4375 34.9375 C-5.93228714 32.57529133 -4.80438281 31.03611915 -3.5625 27 C-4.13910498 23.22003405 -4.69656692 20.89579284 -7.375 18.125 C-12.6118056 15.43178569 -15.60219427 15.65718527 -20.5625 19 Z " fill="#494358" transform="translate(141.5625,26)"/>
</svg>
