<svg width="24" height="21" viewBox="0 0 24 21" fill="none" xmlns="http://www.w3.org/2000/svg">
<path d="M2.12121 20.4444C1.53788 20.4444 1.03851 20.2443 0.623106 19.8439C0.207702 19.4435 0 18.9622 0 18.4V6.13333C0 5.57111 0.207702 5.08982 0.623106 4.68945C1.03851 4.28907 1.53788 4.08889 2.12121 4.08889H5.46212L7.42424 2.04444H13.7879V4.08889H8.35227L6.41667 6.13333H2.12121V18.4H19.0909V9.2H21.2121V18.4C21.2121 18.9622 21.0044 19.4435 20.589 19.8439C20.1736 20.2443 19.6742 20.4444 19.0909 20.4444H2.12121ZM19.0909 6.13333V4.08889H16.9697V2.04444H19.0909V0H21.2121V2.04444H23.3333V4.08889H21.2121V6.13333H19.0909ZM10.6061 16.8667C11.9318 16.8667 13.0587 16.4194 13.9867 15.525C14.9148 14.6306 15.3788 13.5444 15.3788 12.2667C15.3788 10.9889 14.9148 9.90278 13.9867 9.00833C13.0587 8.11389 11.9318 7.66667 10.6061 7.66667C9.2803 7.66667 8.15341 8.11389 7.22538 9.00833C6.29735 9.90278 5.83333 10.9889 5.83333 12.2667C5.83333 13.5444 6.29735 14.6306 7.22538 15.525C8.15341 16.4194 9.2803 16.8667 10.6061 16.8667ZM10.6061 14.8222C9.86364 14.8222 9.23611 14.5752 8.72348 14.0811C8.21086 13.587 7.95455 12.9822 7.95455 12.2667C7.95455 11.5511 8.21086 10.9463 8.72348 10.4522C9.23611 9.95815 9.86364 9.71111 10.6061 9.71111C11.3485 9.71111 11.976 9.95815 12.4886 10.4522C13.0013 10.9463 13.2576 11.5511 13.2576 12.2667C13.2576 12.9822 13.0013 13.587 12.4886 14.0811C11.976 14.5752 11.3485 14.8222 10.6061 14.8222Z" fill="#757575"/>
</svg>
