<?xml version="1.0" encoding="UTF-8"?>
<svg version="1.1" xmlns="http://www.w3.org/2000/svg" width="96" height="96">
<path d="M0 0 C3.06103516 1.38037109 3.06103516 1.38037109 6.2890625 3.2734375 C7.48970296 3.94093344 8.69156776 4.60623102 9.89453125 5.26953125 C11.76430666 6.31548744 13.62174859 7.37305918 15.46142578 8.47119141 C22.90213431 13.05405227 22.90213431 13.05405227 31.31396484 13.22900391 C34.41713399 11.69755088 37.16931303 9.98573715 40 8 C41.33495654 7.21078994 42.67522343 6.43040466 44.0234375 5.6640625 C46.27615893 4.29352569 48.52612358 2.91844829 50.7734375 1.5390625 C54.19825723 -0.09456822 56.25881387 -0.40833005 60 0 C61.88267079 1.88267079 61.20663703 5.1172385 61.25634766 7.62768555 C61.27095032 8.3204509 61.28555298 9.01321625 61.30059814 9.72697449 C61.4267464 16.12862292 61.4953755 22.53152928 61.54844093 28.93416119 C61.58419647 33.23722131 61.63746363 37.53841075 61.73388672 41.84057617 C61.82679428 45.99813284 61.8753742 50.15403463 61.89283371 54.31257057 C61.90691764 55.89595706 61.936536 57.47928607 61.98213577 59.06207848 C62.32114574 71.43637217 62.32114574 71.43637217 59.11155701 75.23504639 C56.79941561 76.80372697 54.57552049 77.92960494 52 79 C51.08839111 79.55800293 50.17678223 80.11600586 49.23754883 80.69091797 C46.7698109 82.09901594 44.2944808 83.49215529 41.8125 84.875 C40.94947266 85.37257813 40.08644531 85.87015625 39.19726562 86.3828125 C38.35486328 86.85203125 37.51246094 87.32125 36.64453125 87.8046875 C35.89534424 88.22733887 35.14615723 88.64999023 34.37426758 89.08544922 C31.32708016 90.25920388 29.25077176 90.35809902 26 90 C22.93896484 88.61962891 22.93896484 88.61962891 19.7109375 86.7265625 C18.51029704 86.05906656 17.30843224 85.39376898 16.10546875 84.73046875 C14.23569334 83.68451256 12.37825141 82.62694082 10.53857422 81.52880859 C3.09786569 76.94594773 3.09786569 76.94594773 -5.31396484 76.77099609 C-8.41713399 78.30244912 -11.16931303 80.01426285 -14 82 C-15.33495654 82.78921006 -16.67522343 83.56959534 -18.0234375 84.3359375 C-20.27615893 85.70647431 -22.52612358 87.08155171 -24.7734375 88.4609375 C-28.19825723 90.09456822 -30.25881387 90.40833005 -34 90 C-35.88267079 88.11732921 -35.20663703 84.8827615 -35.25634766 82.37231445 C-35.27825165 81.33316643 -35.27825165 81.33316643 -35.30059814 80.27302551 C-35.4267464 73.87137708 -35.4953755 67.46847072 -35.54844093 61.06583881 C-35.58419647 56.76277869 -35.63746363 52.46158925 -35.73388672 48.15942383 C-35.82679428 44.00186716 -35.8753742 39.84596537 -35.89283371 35.68742943 C-35.90691764 34.10404294 -35.936536 32.52071393 -35.98213577 30.93792152 C-36.32114574 18.56362783 -36.32114574 18.56362783 -33.11155701 14.76495361 C-30.79941561 13.19627303 -28.57552049 12.07039506 -26 11 C-25.08839111 10.44199707 -24.17678223 9.88399414 -23.23754883 9.30908203 C-20.7698109 7.90098406 -18.2944808 6.50784471 -15.8125 5.125 C-14.94947266 4.62742187 -14.08644531 4.12984375 -13.19726562 3.6171875 C-12.35486328 3.14796875 -11.51246094 2.67875 -10.64453125 2.1953125 C-9.89534424 1.77266113 -9.14615723 1.35000977 -8.37426758 0.91455078 C-5.32708016 -0.25920388 -3.25077176 -0.35809902 0 0 Z M2 14 C2 31.16 2 48.32 2 66 C12.5747863 72.80123414 12.5747863 72.80123414 24 76 C24 58.84 24 41.68 24 24 C13.4252137 17.19876586 13.4252137 17.19876586 2 14 Z M-26 24 C-26 40.83 -26 57.66 -26 75 C-24.02 74.34 -22.04 73.68 -20 73 C-18.9490918 72.7311499 -17.89818359 72.4622998 -16.81542969 72.18530273 C-13.05191579 70.76156274 -10.1692097 69.43458202 -8 66 C-5.87319007 57.64931369 -6.88451114 48.58310269 -7.25 40.0625 C-7.31021625 37.63750077 -7.36496506 35.2123592 -7.4140625 32.78710938 C-7.5460738 26.85496161 -7.74659576 20.92813639 -8 15 C-14.70820393 15 -20.15329355 20.71122762 -26 24 Z M34 24 C34 40.83 34 57.66 34 75 C35.98 74.34 37.96 73.68 40 73 C41.0509082 72.7311499 42.10181641 72.4622998 43.18457031 72.18530273 C46.94808421 70.76156274 49.8307903 69.43458202 52 66 C54.12680993 57.64931369 53.11548886 48.58310269 52.75 40.0625 C52.68978375 37.63750077 52.63503494 35.2123592 52.5859375 32.78710938 C52.4539262 26.85496161 52.25340424 20.92813639 52 15 C45.29179607 15 39.84670645 20.71122762 34 24 Z " fill="#9D998E" transform="translate(35,3)"/>
</svg>
