<svg width="16" height="37" viewBox="0 0 16 37" fill="none" xmlns="http://www.w3.org/2000/svg">
<g filter="url(#filter0_d_5385_608)">
<path d="M7.5 28.5089L7.5 15" stroke="#9E998F" stroke-dasharray="2 2"/>
<path d="M7.5 28.5089L7.5 15" stroke="#9E998F" stroke-opacity="0.3" stroke-dasharray="2 2"/>
</g>
<path d="M7.52942 11.3333C8.3974 11.3333 9.13727 11.0083 9.74903 10.3583C10.3608 9.70834 10.6667 8.92223 10.6667 8.00001C10.6667 7.07779 10.3608 6.29168 9.74903 5.64168C9.13727 4.99168 8.3974 4.66668 7.52942 4.66668C6.66145 4.66668 5.92158 4.99168 5.30982 5.64168C4.69805 6.29168 4.39217 7.07779 4.39217 8.00001C4.39217 8.92223 4.69805 9.70834 5.30982 10.3583C5.92158 11.0083 6.66145 11.3333 7.52942 11.3333ZM7.52942 14.6667C6.66145 14.6667 5.84576 14.4917 5.08236 14.1417C4.31897 13.7917 3.65491 13.3167 3.09021 12.7167C2.5255 12.1167 2.07844 11.4111 1.74903 10.6C1.41962 9.7889 1.25491 8.92223 1.25491 8.00001C1.25491 7.07779 1.41962 6.21112 1.74903 5.40001C2.07844 4.5889 2.5255 3.88334 3.09021 3.28334C3.65491 2.68334 4.31897 2.20834 5.08236 1.85834C5.84576 1.50834 6.66145 1.33334 7.52942 1.33334C8.3974 1.33334 9.21308 1.50834 9.97648 1.85834C10.7399 2.20834 11.4039 2.68334 11.9686 3.28334C12.5333 3.88334 12.9804 4.5889 13.3098 5.40001C13.6392 6.21112 13.8039 7.07779 13.8039 8.00001C13.8039 8.92223 13.6392 9.7889 13.3098 10.6C12.9804 11.4111 12.5333 12.1167 11.9686 12.7167C11.4039 13.3167 10.7399 13.7917 9.97648 14.1417C9.21308 14.4917 8.3974 14.6667 7.52942 14.6667ZM7.52942 13.3333C8.93073 13.3333 10.1177 12.8167 11.0902 11.7833C12.0628 10.75 12.549 9.4889 12.549 8.00001C12.549 6.51112 12.0628 5.25001 11.0902 4.21668C10.1177 3.18334 8.93073 2.66668 7.52942 2.66668C6.12812 2.66668 4.94119 3.18334 3.96864 4.21668C2.99609 5.25001 2.50982 6.51112 2.50982 8.00001C2.50982 9.4889 2.99609 10.75 3.96864 11.7833C4.94119 12.8167 6.12812 13.3333 7.52942 13.3333Z" fill="#9E998F" fill-opacity="0.7"/>
<defs>
<filter id="filter0_d_5385_608" x="3" y="15" width="9" height="21.5089" filterUnits="userSpaceOnUse" color-interpolation-filters="sRGB">
<feFlood flood-opacity="0" result="BackgroundImageFix"/>
<feColorMatrix in="SourceAlpha" type="matrix" values="0 0 0 0 0 0 0 0 0 0 0 0 0 0 0 0 0 0 127 0" result="hardAlpha"/>
<feOffset dy="4"/>
<feGaussianBlur stdDeviation="2"/>
<feComposite in2="hardAlpha" operator="out"/>
<feColorMatrix type="matrix" values="0 0 0 0 0 0 0 0 0 0 0 0 0 0 0 0 0 0 0.25 0"/>
<feBlend mode="normal" in2="BackgroundImageFix" result="effect1_dropShadow_5385_608"/>
<feBlend mode="normal" in="SourceGraphic" in2="effect1_dropShadow_5385_608" result="shape"/>
</filter>
</defs>
</svg>
