<svg width="90" height="79" viewBox="0 0 90 79" fill="none" xmlns="http://www.w3.org/2000/svg">
<path d="M33.7444 0C32.2525 0 30.8218 0.592632 29.7669 1.64752C28.712 2.70242 28.1194 4.13316 28.1194 5.625V11.25H27.1012C24.3482 11.2487 21.6553 12.0554 19.3565 13.5703C17.0577 15.0852 15.2541 17.2415 14.1694 19.7719L9.71437 30.1669C9.29565 31.155 8.53756 31.961 7.57688 32.4394C4.76438 33.8456 2.7675 36.4613 2.14875 39.5381L0.275625 48.9825C0.0932668 49.8899 0.000944046 50.8132 0 51.7388V54.0619C0 58.6406 2.19375 62.7412 5.625 65.295V75.9375C5.625 76.6834 5.92132 77.3988 6.44876 77.9262C6.97621 78.4537 7.69158 78.75 8.4375 78.75H19.6875C20.4334 78.75 21.1488 78.4537 21.6762 77.9262C22.2037 77.3988 22.5 76.6834 22.5 75.9375V68.4112C29.7675 68.6813 37.9406 68.9062 45 68.9062C52.0594 68.9062 60.2325 68.6813 67.5 68.4112V75.9375C67.5 76.6834 67.7963 77.3988 68.3238 77.9262C68.8512 78.4537 69.5666 78.75 70.3125 78.75H81.5625C82.3084 78.75 83.0238 78.4537 83.5512 77.9262C84.0787 77.3988 84.375 76.6834 84.375 75.9375V65.295C87.8063 62.7412 90 58.6406 90 54.0619V51.7388C90 50.8088 89.9081 49.89 89.7244 48.9825L87.84 39.5325C87.5384 38.0144 86.8928 36.5856 85.9528 35.356C85.0128 34.1263 83.8034 33.1286 82.4175 32.4394C81.4547 31.9621 80.6945 31.156 80.2744 30.1669L75.8194 19.7719C74.7347 17.2415 72.9311 15.0852 70.6323 13.5703C68.3335 12.0554 65.6406 11.2487 62.8875 11.25H61.8694V5.625C61.8694 4.13316 61.2767 2.70242 60.2218 1.64752C59.167 0.592632 57.7362 0 56.2444 0H33.7444ZM24.2325 16.875H65.7562C66.2781 16.875 66.7897 17.0202 67.2338 17.2944C67.6778 17.5686 68.0368 17.9609 68.2706 18.4275L73.6481 29.1881C73.868 29.6418 73.9644 30.1454 73.9277 30.6482C73.891 31.151 73.7224 31.6353 73.4389 32.0522C73.1555 32.4691 72.7672 32.804 72.3131 33.023C71.859 33.2421 71.3552 33.3376 70.8525 33.3C65.7337 32.8894 52.0088 32.3438 44.9944 32.3438C37.98 32.3438 24.2494 32.8894 19.1363 33.3C18.6335 33.3376 18.1297 33.2421 17.6757 33.023C17.2216 32.804 16.8333 32.4691 16.5498 32.0522C16.2664 31.6353 16.0978 31.151 16.0611 30.6482C16.0243 30.1454 16.1208 29.6418 16.3406 29.1881L21.7181 18.4275C21.9519 17.9609 22.3109 17.5686 22.755 17.2944C23.199 17.0202 23.7106 16.875 24.2325 16.875ZM22.4944 50.625C22.4944 52.1168 21.9017 53.5476 20.8469 54.6025C19.792 55.6574 18.3612 56.25 16.8694 56.25C15.3775 56.25 13.9468 55.6574 12.8919 54.6025C11.837 53.5476 11.2444 52.1168 11.2444 50.625C11.2444 49.1332 11.837 47.7024 12.8919 46.6475C13.9468 45.5926 15.3775 45 16.8694 45C18.3612 45 19.792 45.5926 20.8469 46.6475C21.9017 47.7024 22.4944 49.1332 22.4944 50.625ZM78.7444 50.625C78.7444 52.1168 78.1517 53.5476 77.0968 54.6025C76.042 55.6574 74.6112 56.25 73.1194 56.25C71.6275 56.25 70.1968 55.6574 69.1419 54.6025C68.087 53.5476 67.4944 52.1168 67.4944 50.625C67.4944 49.1332 68.087 47.7024 69.1419 46.6475C70.1968 45.5926 71.6275 45 73.1194 45C74.6112 45 76.042 45.5926 77.0968 46.6475C78.1517 47.7024 78.7444 49.1332 78.7444 50.625ZM28.1194 50.625C28.1194 49.1332 28.712 47.7024 29.7669 46.6475C30.8218 45.5926 32.2525 45 33.7444 45H56.2444C57.7362 45 59.167 45.5926 60.2218 46.6475C61.2767 47.7024 61.8694 49.1332 61.8694 50.625C61.8694 52.1168 61.2767 53.5476 60.2218 54.6025C59.167 55.6574 57.7362 56.25 56.2444 56.25H33.7444C32.2525 56.25 30.8218 55.6574 29.7669 54.6025C28.712 53.5476 28.1194 52.1168 28.1194 50.625Z" fill="#757575"/>
</svg>
