<svg width="20" height="20" viewBox="0 0 20 20" fill="none" xmlns="http://www.w3.org/2000/svg">
<path d="M10 18.3333C8.84724 18.3333 7.76391 18.1146 6.75002 17.6771C5.73613 17.2396 4.85419 16.6458 4.10419 15.8958C3.35419 15.1458 2.76044 14.2639 2.32294 13.25C1.88544 12.2361 1.66669 11.1528 1.66669 9.99999C1.66669 8.84721 1.88544 7.76388 2.32294 6.74999C2.76044 5.7361 3.35419 4.85416 4.10419 4.10416C4.85419 3.35416 5.73613 2.76041 6.75002 2.32291C7.76391 1.88541 8.84724 1.66666 10 1.66666C11.1528 1.66666 12.2361 1.88541 13.25 2.32291C14.2639 2.76041 15.1459 3.35416 15.8959 4.10416C16.6459 4.85416 17.2396 5.7361 17.6771 6.74999C18.1146 7.76388 18.3334 8.84721 18.3334 9.99999C18.3334 11.1528 18.1146 12.2361 17.6771 13.25C17.2396 14.2639 16.6459 15.1458 15.8959 15.8958C15.1459 16.6458 14.2639 17.2396 13.25 17.6771C12.2361 18.1146 11.1528 18.3333 10 18.3333ZM9.16669 16.625V15C8.70835 15 8.31599 14.8368 7.9896 14.5104C7.66321 14.184 7.50002 13.7917 7.50002 13.3333V12.5L3.50002 8.49999C3.45835 8.74999 3.42016 8.99999 3.38544 9.24999C3.35071 9.49999 3.33335 9.74999 3.33335 9.99999C3.33335 11.6805 3.88544 13.1528 4.9896 14.4167C6.09377 15.6805 7.48613 16.4167 9.16669 16.625ZM14.9167 14.5C15.4861 13.875 15.9202 13.1771 16.2188 12.4062C16.5174 11.6354 16.6667 10.8333 16.6667 9.99999C16.6667 8.63888 16.2882 7.39582 15.5313 6.27082C14.7743 5.14582 13.7639 4.33332 12.5 3.83332V4.16666C12.5 4.62499 12.3368 5.01735 12.0104 5.34374C11.684 5.67013 11.2917 5.83332 10.8334 5.83332H9.16669V7.49999C9.16669 7.7361 9.08683 7.93402 8.9271 8.09374C8.76738 8.25346 8.56946 8.33332 8.33335 8.33332H6.66669V9.99999H11.6667C11.9028 9.99999 12.1007 10.0799 12.2604 10.2396C12.4202 10.3993 12.5 10.5972 12.5 10.8333V13.3333H13.3334C13.6945 13.3333 14.0209 13.441 14.3125 13.6562C14.6042 13.8715 14.8056 14.1528 14.9167 14.5Z" fill="#151515"/>
</svg>
