<?xml version="1.0" encoding="UTF-8"?>
<svg version="1.1" xmlns="http://www.w3.org/2000/svg" width="56" height="56">
<path d="M0 0 C6.86644191 4.46597848 11.53156329 9.19063044 13.921875 17.25 C15.23920688 28.08909914 13.82932172 36.31481515 7.296875 45 C2.49522443 50.11143448 -2.76783106 52.84768283 -9.7421875 53.6953125 C-20.00306112 54.00375559 -27.92801056 52.16753174 -35.50390625 45.05078125 C-41.66304072 38.00522048 -42.83948106 31.0243666 -42.49609375 21.80859375 C-41.57602665 13.97512523 -38.0281514 7.45143306 -32.078125 2.25 C-22.97351345 -4.49732 -10.0328172 -5.43129954 0 0 Z " fill="#FAB634" transform="translate(42.078125,2.75)"/>
<path d="M0 0 C0.68964844 0.29519531 1.37929688 0.59039062 2.08984375 0.89453125 C2.9296875 2.99609375 2.9296875 2.99609375 3.08984375 5.89453125 C1.34825951 8.28731656 -0.2790982 10.19793879 -2.34765625 12.26953125 C-2.89881104 12.83953857 -3.44996582 13.4095459 -4.01782227 13.99682617 C-5.63057692 15.64863513 -7.26515308 17.27490754 -8.91015625 18.89453125 C-9.70421875 19.68730469 -10.49828125 20.48007812 -11.31640625 21.296875 C-16.06043868 25.75809011 -16.06043868 25.75809011 -19.3671875 26.2890625 C-24.1914182 25.54060274 -27.03718207 21.60935368 -29.91015625 17.89453125 C-31.03515625 14.51953125 -31.03515625 14.51953125 -30.91015625 11.89453125 C-30.25015625 11.23453125 -29.59015625 10.57453125 -28.91015625 9.89453125 C-25.52718212 10.07258252 -24.14743564 10.68290369 -21.59765625 12.95703125 C-21.04078125 13.59640625 -20.48390625 14.23578125 -19.91015625 14.89453125 C-16.96367508 13.57857684 -15.01873092 12.20189038 -12.8515625 9.8203125 C-12.30048828 9.23572266 -11.74941406 8.65113281 -11.18164062 8.04882812 C-10.03825818 6.81658853 -8.90285154 5.57690199 -7.77539062 4.33007812 C-3.53491548 -0.12811103 -3.53491548 -0.12811103 0 0 Z " fill="#29251F" transform="translate(41.91015625,14.10546875)"/>
</svg>
