<svg width="20" height="20" viewBox="0 0 20 20" fill="none" xmlns="http://www.w3.org/2000/svg">
<g clip-path="url(#clip0_3571_501)">
<path d="M9.97095 0.351562C9.99673 0.351562 10.0225 0.351562 10.0491 0.351562C10.0623 0.385759 10.0755 0.419956 10.0891 0.455189C10.4411 1.36573 10.8009 2.27307 11.164 3.17926C11.2698 3.44345 11.3756 3.70766 11.4814 3.97186C11.4932 4.00124 11.5049 4.03062 11.5171 4.06088C11.7651 4.68025 12.0125 5.29981 12.2591 5.91975C12.3025 6.02889 12.346 6.138 12.3895 6.24709C12.4496 6.39754 12.5094 6.54807 12.5692 6.69861C12.5871 6.74335 12.605 6.78809 12.6234 6.83419C12.6475 6.89501 12.6475 6.89501 12.6721 6.95705C12.6861 6.99235 12.7002 7.02765 12.7147 7.06402C12.7444 7.14844 12.7444 7.14844 12.7444 7.22656C12.7738 7.228 12.8033 7.22943 12.8336 7.23091C14.1069 7.29404 15.3788 7.38051 16.6508 7.46469C16.8978 7.48102 17.1448 7.49727 17.3918 7.51349C17.6912 7.53316 17.9906 7.55288 18.29 7.57263C18.3749 7.57823 18.4598 7.58382 18.5448 7.5894C18.7031 7.59981 18.8614 7.61029 19.0197 7.62078C19.0658 7.62381 19.1119 7.62683 19.1594 7.62995C19.4432 7.64882 19.7266 7.67075 20.01 7.69531C19.9352 7.86235 19.8191 7.95888 19.6804 8.07373C19.6558 8.0945 19.6311 8.11528 19.6057 8.13668C19.4283 8.28575 19.2486 8.43196 19.0687 8.57803C18.9074 8.71157 18.7497 8.84913 18.5917 8.98664C18.3708 9.17891 18.1476 9.36838 17.9236 9.55709C17.819 9.64522 17.7146 9.73348 17.6101 9.82178C17.5893 9.83935 17.5685 9.85692 17.5471 9.87503C17.4127 9.98878 17.2789 10.1033 17.1454 10.2181C16.9635 10.3747 16.781 10.53 16.5945 10.6812C16.395 10.843 16.2015 11.011 16.0079 11.1798C15.866 11.3033 15.7227 11.4246 15.5764 11.543C15.3303 11.7423 15.0921 11.9506 14.8536 12.1589C14.7807 12.2222 14.7074 12.2851 14.634 12.348C14.6094 12.3691 14.5847 12.3903 14.5593 12.412C14.5404 12.4282 14.5216 12.4443 14.5022 12.4609C14.6026 12.9229 14.7105 13.3822 14.8271 13.8403C14.8432 13.9042 14.8594 13.968 14.8755 14.0318C14.9186 14.2022 14.9619 14.3724 15.0051 14.5427C15.0413 14.6851 15.0773 14.8275 15.1134 14.9699C15.2973 15.6962 15.4824 16.4222 15.67 17.1476C15.6962 17.249 15.7224 17.3504 15.7486 17.4518C15.8227 17.7386 15.8968 18.0254 15.9716 18.312C16.002 18.4288 16.0322 18.5455 16.0624 18.6623C16.0763 18.7159 16.0903 18.7695 16.1043 18.8231C16.1767 19.0986 16.238 19.3641 16.26 19.6484C15.9414 19.4853 15.6441 19.2965 15.3449 19.1008C15.1669 18.9844 14.9874 18.8706 14.8074 18.7573C14.5359 18.5863 14.265 18.4146 13.9944 18.2422C13.6346 18.013 13.2742 17.7849 12.9134 17.5573C12.7594 17.4602 12.6054 17.3629 12.4514 17.2656C12.3896 17.2266 12.3277 17.1875 12.2659 17.1484C12.1422 17.0703 12.0185 16.9922 11.8948 16.9141C11.8641 16.8947 11.8335 16.8754 11.802 16.8554C11.7403 16.8165 11.6786 16.7775 11.6169 16.7385C11.4599 16.6394 11.3028 16.5402 11.1457 16.4412C11.0982 16.4112 11.0982 16.4112 11.0498 16.3806C10.9871 16.3412 10.9245 16.3018 10.8617 16.2625C10.7175 16.1719 10.5748 16.0801 10.4347 15.9834C10.4098 15.9665 10.3849 15.9497 10.3593 15.9323C10.2931 15.887 10.2274 15.841 10.1617 15.795C10.0543 15.7292 10.0543 15.7292 9.9565 15.7707C9.85293 15.8207 9.75713 15.8756 9.65982 15.9369C9.62257 15.9603 9.58532 15.9836 9.54693 16.0077C9.5072 16.0329 9.46746 16.0581 9.42651 16.084C9.3643 16.1231 9.3643 16.1231 9.30083 16.1631C8.9537 16.3818 8.60756 16.602 8.26166 16.8227C7.9769 17.0042 7.69123 17.1844 7.40558 17.3645C7.25155 17.4617 7.09758 17.559 6.9436 17.6562C6.88175 17.6953 6.81991 17.7344 6.75806 17.7734C6.72744 17.7928 6.69683 17.8121 6.66528 17.832C5.64478 18.4766 5.64478 18.4766 5.55195 18.5352C5.49026 18.5741 5.42857 18.6131 5.36688 18.6521C5.20987 18.7513 5.05283 18.8504 4.89572 18.9494C4.86405 18.9694 4.83237 18.9894 4.79973 19.01C4.73716 19.0494 4.67459 19.0889 4.61199 19.1283C4.46756 19.2194 4.32356 19.3111 4.18054 19.4044C4.15515 19.421 4.12977 19.4375 4.10361 19.4545C4.0565 19.4853 4.00949 19.5162 3.9626 19.5473C3.80768 19.6484 3.80768 19.6484 3.72095 19.6484C3.84728 19.0413 4.00399 18.4419 4.1594 17.8418C4.24174 17.5238 4.32358 17.2056 4.40546 16.8875C4.41401 16.8543 4.42257 16.821 4.43138 16.7868C4.63751 15.986 4.84089 15.1846 5.04371 14.3829C5.07097 14.2752 5.09825 14.1675 5.12555 14.0598C5.16863 13.8897 5.21166 13.7197 5.25465 13.5496C5.27045 13.4871 5.28627 13.4246 5.30211 13.3621C5.378 13.0626 5.45321 12.7632 5.51782 12.4609C5.28979 12.2517 5.05726 12.0507 4.81668 11.8561C4.67718 11.741 4.54079 11.6228 4.40454 11.5039C4.23727 11.358 4.06926 11.2139 3.89673 11.0742C3.70008 10.9149 3.50903 10.7498 3.3182 10.5836C3.13926 10.4278 2.95894 10.2739 2.77753 10.121C2.6208 9.98887 2.4652 9.85543 2.30981 9.72168C2.15117 9.58523 1.99145 9.45061 1.82886 9.31885C1.63155 9.15863 1.43965 8.99274 1.24798 8.82586C1.08855 8.68712 0.928313 8.54945 0.766846 8.41309C0.746575 8.39592 0.726304 8.37876 0.70542 8.36108C0.595248 8.26795 0.48455 8.17551 0.373322 8.08365C0.349712 8.06402 0.326102 8.04438 0.301777 8.02416C0.256248 7.98632 0.210566 7.94866 0.164715 7.91121C0.111677 7.86699 0.0606254 7.82041 0.0100098 7.77344C0.0100098 7.74766 0.0100098 7.72188 0.0100098 7.69531C3.85763 7.43205 3.85763 7.43205 5.67734 7.31345C5.77407 7.30714 5.8708 7.30079 5.96753 7.29444C6.11802 7.28457 6.26851 7.27477 6.41901 7.26504C6.47332 7.26152 6.52762 7.25798 6.58192 7.25441C6.65541 7.24959 6.7289 7.24487 6.80239 7.24015C6.86356 7.23619 6.86356 7.23619 6.92596 7.23214C7.04271 7.22649 7.15877 7.22559 7.27563 7.22656C7.28066 7.19814 7.28569 7.16971 7.29087 7.14042C7.31354 7.03655 7.34401 6.94561 7.38336 6.84702C7.3978 6.8106 7.41224 6.77418 7.42712 6.73666C7.44319 6.69661 7.45927 6.65656 7.47583 6.6153C7.49311 6.57185 7.51039 6.5284 7.5282 6.48363C7.5666 6.38717 7.60506 6.29072 7.64363 6.19432C7.70639 6.03742 7.76893 5.88044 7.83145 5.72344C7.9146 5.51465 7.99783 5.3059 8.08112 5.09717C8.29103 4.57114 8.50043 4.04491 8.70981 3.51868C8.78282 3.33518 8.85583 3.15169 8.92885 2.9682C8.94696 2.92268 8.96507 2.87716 8.98373 2.83026C9.17882 2.34 9.37399 1.84978 9.56918 1.35956C9.58519 1.31935 9.6012 1.27913 9.6177 1.2377C9.66261 1.12491 9.70752 1.01212 9.75243 0.899334C9.76559 0.866275 9.77876 0.833217 9.79232 0.799156C9.85175 0.649913 9.91122 0.500689 9.97095 0.351562Z" fill="#FBB735" fill-opacity="0.8"/>
</g>
<defs>
<clipPath id="clip0_3571_501">
<rect width="20" height="20" fill="white" transform="translate(0.0100098)"/>
</clipPath>
</defs>
</svg>
